<svg width="50" height="50" viewBox="0 0 50 50" fill="none" xmlns="http://www.w3.org/2000/svg">
<path d="M40.2604 19.7253C40.2604 19.7253 39.1291 33.7566 38.4729 39.667C38.1604 42.4899 36.4166 44.1441 33.5604 44.1962C28.125 44.2941 22.6833 44.3003 17.25 44.1858C14.5021 44.1295 12.7875 42.4545 12.4812 39.6816C11.8208 33.7191 10.6958 19.7253 10.6958 19.7253" stroke="#121212" stroke-width="3.5" stroke-linecap="round" stroke-linejoin="round"/>
<path d="M43.1422 12.9994H7.81299" stroke="#121212" stroke-width="3.5" stroke-linecap="round" stroke-linejoin="round"/>
<path d="M36.3347 12.9993C34.6993 12.9993 33.2909 11.8431 32.9701 10.241L32.4639 7.70767C32.1514 6.53892 31.093 5.73059 29.8868 5.73059H21.068C19.8618 5.73059 18.8034 6.53892 18.4909 7.70767L17.9847 10.241C17.6639 11.8431 16.2555 12.9993 14.6201 12.9993" stroke="#121212" stroke-width="3.5" stroke-linecap="round" stroke-linejoin="round"/>
</svg>
